# xmcd
# 
# Track frame offsets:
#     150
#     11690
#     22953
#     33606
#     46191
#     55921
#     67171
#     79368
#     92184
#     104020
#     115743
#     134775
# 
# Disc length: 1953
# 
# Revision: 0
# Processed by: cddbd v1.5.2PL0 Copyright (c) Steve Scherf et al.
# Submitted via: fre:ac v1.0.31
# 
DISCID=ab079f0c
DTITLE=The Chuck Wagon Gang - 70th Anniversary Collector's Edition
DYEAR=0
DGENRE=Country
TTITLE0=Daddy Sang Bass
TTITLE1=Lifes Railway To Heaven
TTITLE2=I Saw The Light
TTITLE3=Turn Your Radio On
TTITLE4=Down The Road
TTITLE5=Wait A Little Longer, Please Jesus
TTITLE6=Grandmas Feather Bed
TTITLE7=Looking For A City
TTITLE8=Heaven's Jubilee
TTITLE9=When The Wagon Was New
TTITLE10=He Walks With the Wild and Lonely
TTITLE11=Family Bible
EXTD=
EXTT0=
EXTT1=
EXTT2=
EXTT3=
EXTT4=
EXTT5=
EXTT6=
EXTT7=
EXTT8=
EXTT9=
EXTT10=
EXTT11=
PLAYORDER=
